# xmcd
#
# Track frame offsets:
#	150
#	14180
#	30560
#	40668
#	54633
#	72713
#	85695
#	100593
#	113710
#	126293
#	146733
#	159830
#	176125
#	190240
#	202815
#
# Disc length: 2888
#
# Revision: 1
# Processed by: cddbd v1.5.1PL0 Copyright (c) Steve Scherf et al.
# Submitted via: CDex 1.51
# Normalized: r0:TDELIM( - )
#
DISCID=cd0b460f
DTITLE=Various Artist - Country Collection, Vol. 3
DYEAR=1900
DGENRE=Country
TTITLE0=Bobbie Gentry - Raindrops Keep Falling On My Head
TTITLE1=Billie Jo Sppears - Blanket On The Ground
TTITLE2=Crystal Gayle - Wrong Road Again
TTITLE3=Juice Newton - All I Have To Do Is Dream
TTITLE4=Dottie West - Hey Mr. Dream Maker
TTITLE5=Billie Jo Spears - 57 Chevrolet
TTITLE6=Jean Shepard - Sing Me An Old Fashioned Song
TTITLE7=Crystal Gayle - Wayward Wind
TTITLE8=Tanya Tucker - Daddy and Home
TTITLE9=Billie Joe Spears - Ode To Billy Joe
TTITLE10=Bobbie Gentry - I'll Never Fall In Love Again
TTITLE11=Marie Osmond - What Would You Do About you (if You Were Me)
TTITLE12=Lacy C Dalton - Still Crasy After All This Years
TTITLE13=Crystal gayle - When I Dream
TTITLE14=Jean Shepard - It Keeps Right On-A-Hurting
EXTD=
EXTT0=
EXTT1=
EXTT2=
EXTT3=
EXTT4=
EXTT5=
EXTT6=
EXTT7=
EXTT8=
EXTT9=
EXTT10=
EXTT11=
EXTT12=
EXTT13=
EXTT14=
PLAYORDER=
